<svg width="38" height="36" viewBox="0 0 38 36" fill="none" xmlns="http://www.w3.org/2000/svg">
<ellipse cx="19.2222" cy="17.5818" rx="18.3333" ry="17.5818" fill="#E86C72"/>
<path d="M9.62239 26.7145C9.25435 27.1262 9.30185 27.7444 9.7285 28.0951C10.1551 28.4458 10.7994 28.3963 11.1674 27.9845L9.62239 26.7145ZM27.7087 9.03829C27.6672 8.49913 27.1781 8.09707 26.6162 8.14025L17.459 8.84404C16.8971 8.88723 16.4751 9.35931 16.5166 9.89847C16.558 10.4376 17.0472 10.8397 17.6091 10.7965L25.7488 10.1709L26.349 17.9808C26.3904 18.5199 26.8796 18.922 27.4415 18.8788C28.0034 18.8356 28.4254 18.3635 28.3839 17.8244L27.7087 9.03829ZM11.1674 27.9845L27.4637 9.75149L25.9187 8.48148L9.62239 26.7145L11.1674 27.9845Z" fill="white"/>
</svg>
