<svg width="37" height="37" viewBox="0 0 37 37" fill="none" xmlns="http://www.w3.org/2000/svg">
<ellipse cx="18.5555" cy="18.5818" rx="18.3333" ry="17.5818" transform="rotate(90 18.5555 18.5818)" fill="#61A449"/>
<path d="M9.42285 8.98199C9.01107 8.61394 8.39295 8.66145 8.04225 9.08809C7.69154 9.51474 7.74105 10.159 8.15284 10.527L9.42285 8.98199ZM27.099 27.0683C27.6382 27.0268 28.0402 26.5377 27.9971 25.9758L27.2933 16.8186C27.2501 16.2567 26.778 15.8347 26.2388 15.8762C25.6997 15.9176 25.2976 16.4067 25.3408 16.9687L25.9664 25.1084L18.1565 25.7086C17.6174 25.75 17.2153 26.2392 17.2585 26.8011C17.3017 27.363 17.7738 27.785 18.3129 27.7435L27.099 27.0683ZM8.15284 10.527L26.3858 26.8233L27.6558 25.2783L9.42285 8.98199L8.15284 10.527Z" fill="white"/>
</svg>
