<svg width="38" height="36" viewBox="0 0 38 36" fill="none" xmlns="http://www.w3.org/2000/svg">
<ellipse cx="18.8889" cy="17.5818" rx="18.3333" ry="17.5818" fill="#6CAFDF"/>
<path d="M5.9412 17.2338C5.38892 17.2338 4.95971 17.6812 4.98254 18.233C5.00538 18.7848 5.4716 19.2321 6.02388 19.2321L5.9412 17.2338ZM31.1731 18.9395C31.5475 18.5493 31.5213 17.9167 31.1147 17.5265L24.4876 11.168C24.081 10.7778 23.4478 10.7778 23.0734 11.168C22.699 11.5581 22.7252 12.1908 23.1319 12.581L29.0226 18.233L23.5996 23.885C23.2252 24.2752 23.2514 24.9078 23.6581 25.298C24.0647 25.6882 24.6979 25.6882 25.0723 25.298L31.1731 18.9395ZM6.02388 19.2321H30.4781L30.3955 17.2338H5.9412L6.02388 19.2321Z" fill="white"/>
</svg>
