<?xml version="1.0" encoding="utf-8"?>
<!-- Generator: Adobe Illustrator 26.2.1, SVG Export Plug-In . SVG Version: 6.00 Build 0)  -->
<svg version="1.1" id="Layer_1" xmlns="http://www.w3.org/2000/svg" xmlns:xlink="http://www.w3.org/1999/xlink" x="0px" y="0px"
	 viewBox="0 0 321.5 87.9" style="enable-background:new 0 0 321.5 87.9;" xml:space="preserve">
<style type="text/css">
	.st0{fill:#F7CB6F;}
	.st1{fill:#FF513B;}
	.st2{fill:#5C1826;}
	.st3{font-family:'BigNoodleTitling';}
	.st4{font-size:66.8155px;}
</style>
<g>
	<g>
		<g>
			<path class="st0" d="M41,19.9c-13.3,0-24.2,10.9-24.2,24.2c0,13.4,10.9,24.2,24.2,24.2s24.2-10.9,24.2-24.2
				C65.2,30.7,54.3,19.9,41,19.9z"/>
			<path class="st1" d="M41,14.5c-16.3,0-29.6,13.3-29.6,29.6c0,16.3,13.3,29.6,29.6,29.6c16.3,0,29.6-13.3,29.6-29.6
				C70.6,27.8,57.3,14.5,41,14.5z M41,68.3c-13.3,0-24.2-10.9-24.2-24.2c0-13.3,10.9-24.2,24.2-24.2s24.2,10.9,24.2,24.2
				C65.2,57.4,54.3,68.3,41,68.3z"/>
		</g>
		<g>
			<g>
				<g>
					<g>
						<path class="st2" d="M25.6,41.1c-0.2,0-0.3-0.1-0.4-0.2C24,39.7,23,38.6,22,37.7c-0.3-0.2-0.3-0.7-0.1-1
							c0.2-0.3,0.7-0.3,1-0.1c1.1,0.9,2.1,2,3.3,3.3c0.3,0.3,0.2,0.7,0,1C26,41.1,25.8,41.1,25.6,41.1z"/>
					</g>
				</g>
			</g>
			<g>
				<g>
					<g>
						<path class="st2" d="M32.8,34.7c-0.3,0-0.5-0.1-0.7-0.3c-0.8-1.4-1.5-2.7-2.3-4.1c-0.2-0.3-0.1-0.7,0.3-0.9
							c0.3-0.2,0.7-0.1,0.9,0.3c0.8,1.4,1.5,2.7,2.3,4.1c0.2,0.3,0.1,0.7-0.3,0.9C33,34.7,32.9,34.7,32.8,34.7z"/>
					</g>
				</g>
			</g>
			<g>
				<g>
					<g>
						<path class="st2" d="M56.3,41.1c0.1,0,0.3-0.1,0.4-0.2c1.1-1.2,2.2-2.3,3.2-3.2c0.3-0.2,0.3-0.7,0.1-1c-0.2-0.3-0.7-0.3-1-0.1
							c-1,0.9-2.1,2-3.3,3.3c-0.3,0.3-0.2,0.7,0,1C55.9,41.1,56.2,41.1,56.3,41.1z"/>
					</g>
				</g>
			</g>
			<g>
				<g>
					<g>
						<path class="st2" d="M49.1,34.7c0.3,0,0.5-0.1,0.7-0.3c0.8-1.4,1.5-2.7,2.3-4.1c0.2-0.3,0.1-0.7-0.3-0.9
							c-0.3-0.2-0.7-0.1-0.9,0.3c-0.8,1.4-1.5,2.7-2.3,4.1c-0.2,0.3-0.1,0.7,0.3,0.9C48.9,34.7,49,34.7,49.1,34.7z"/>
					</g>
				</g>
			</g>
			<g>
				<g>
					<g>
						<path class="st2" d="M41,31.7c-0.4,0-0.7-0.3-0.7-0.7v-4.7c0-0.4,0.3-0.7,0.7-0.7c0.4,0,0.7,0.3,0.7,0.7V31
							C41.7,31.4,41.3,31.7,41,31.7z"/>
					</g>
				</g>
			</g>
		</g>
		<g>
			<g>
				<g>
					<polygon class="st2" points="36.7,56.3 29.4,39.5 39.9,54.5 					"/>
				</g>
			</g>
			<g>
				<g>
					<path class="st2" d="M40.2,54.9C40.2,54.9,40.1,55,40.2,54.9l-3.3,1.8c-0.1,0.1-0.3,0.1-0.4,0c-0.1,0-0.2-0.1-0.3-0.3
						l-7.2-16.8c-0.1-0.2,0-0.5,0.2-0.7c0.2-0.1,0.5-0.1,0.7,0.2l10.4,15c0.1,0.1,0.1,0.3,0.1,0.4C40.3,54.7,40.3,54.8,40.2,54.9z
						 M36.9,55.6l2.2-1.2L31.9,44L36.9,55.6z"/>
				</g>
			</g>
		</g>
		<g>
			<g>
				<path class="st2" d="M47.3,58.5c0,3.5-2.8,6.3-6.3,6.3c-3.5,0-6.3-2.8-6.3-6.3c0-3.5,2.8-6.3,6.3-6.3
					C44.5,52.2,47.3,55,47.3,58.5z"/>
			</g>
		</g>
		<g>
			<g>
				<g>
					<g>
						<path class="st2" d="M45.8,46.3c-0.1,0-0.3,0-0.4-0.1c-0.3-0.2-0.6-0.6-0.5-1.4c0.2-1.7-0.8-2-0.8-2l0.1-0.5
							c0.1,0,1.4,0.4,1.1,2.5c-0.1,0.5,0.1,0.8,0.3,0.9c0.1,0.1,0.3,0,0.4-0.1c0.3-0.3,0.5-1.1-0.1-2.6c-0.3-0.7-0.4-1.3-0.6-1.8
							c-0.3-1.1-0.5-1.5-1.2-1.5l0-0.5c1.1,0.1,1.3,0.8,1.6,1.9c0.1,0.5,0.3,1,0.6,1.7c0.8,2.1,0.2,2.9-0.1,3.1
							C46.3,46.2,46.1,46.3,45.8,46.3z"/>
					</g>
				</g>
			</g>
			<g>
				<g>
					<g>
						<g>
							<g>
								<path class="st2" d="M46.1,40.5c0,0-0.1,0-0.1,0l-1.1-0.9h-1.7c-0.1,0-0.2-0.1-0.2-0.2c0-0.1,0.1-0.2,0.2-0.2h1.7
									c0,0,0.1,0,0.1,0l1.2,0.9c0.1,0.1,0.1,0.2,0,0.2C46.2,40.5,46.1,40.5,46.1,40.5z"/>
							</g>
						</g>
					</g>
				</g>
				<g>
					<g>
						<g>
							<g>
								<path class="st2" d="M44.8,40.2c-0.7,0-0.9-0.7-0.9-0.7c0-0.1,0-0.1,0.1-0.1c0.1,0,0.1,0,0.1,0.1c0,0,0.2,0.6,0.7,0.6
									c0,0,0,0,0,0c0.6,0,1,0,1,0c0.1,0,0.1,0.1,0.1,0.1c0,0.1-0.1,0.1-0.1,0.1h0C45.8,40.2,45.4,40.2,44.8,40.2
									C44.8,40.2,44.8,40.2,44.8,40.2z"/>
							</g>
						</g>
					</g>
				</g>
				<g>
					<g>
						<g>
							<g>
								<path class="st2" d="M44.5,40.1C44.5,40.1,44.5,40.1,44.5,40.1c-0.1-0.1-0.1-0.1,0-0.2c0.1,0,0.3-0.2,0.3-0.4
									c0,0,0-0.1,0.1-0.1c0,0,0.1,0,0.1,0.1C45,39.8,44.6,40,44.5,40.1C44.5,40.1,44.5,40.1,44.5,40.1z"/>
							</g>
						</g>
					</g>
				</g>
			</g>
			<g>
				<g>
					<g>
						<path class="st2" d="M44.6,46.2c0,0.2-0.2,0.4-0.4,0.4h-5.9c-0.2,0-0.4-0.2-0.4-0.4v-8.4c0-0.2,0.2-0.4,0.4-0.4h5.9
							c0.2,0,0.4,0.2,0.4,0.4V46.2z"/>
					</g>
				</g>
			</g>
			<g>
				<g>
					<g>
						<path class="st0" d="M43.8,41.1c0,0.2-0.2,0.4-0.4,0.4h-4.4c-0.2,0-0.4-0.2-0.4-0.4v-2.4c0-0.2,0.2-0.4,0.4-0.4h4.4
							c0.2,0,0.4,0.2,0.4,0.4V41.1z"/>
					</g>
				</g>
			</g>
		</g>
	</g>
	<text transform="matrix(1 0 0 1 81.909 70.3713)" class="st0 st3 st4">Litrômetro</text>
	<text transform="matrix(1 0 0 1 79.2619 67.7243)" class="st2 st3 st4">Litrômetro</text>
</g>
</svg>
