<?xml version="1.0" encoding="utf-8"?>
<!-- Generator: Adobe Illustrator 26.2.1, SVG Export Plug-In . SVG Version: 6.00 Build 0)  -->
<svg version="1.1" id="Layer_1" xmlns="http://www.w3.org/2000/svg" xmlns:xlink="http://www.w3.org/1999/xlink" x="0px" y="0px"
	 viewBox="0 0 179.7 38.5" style="enable-background:new 0 0 179.7 38.5;" xml:space="preserve">
<style type="text/css">
	.st0{fill:#E9A82F;stroke:#F0C26E;stroke-width:0.25;stroke-miterlimit:10;}
	.st1{fill:#FFFFFF;}
	.st2{fill:#5C1826;}
	.st3{fill:#C03B46;}
	.st4{fill:#111E2E;}
	.st5{fill:#F7CB6F;}
	.st6{fill:#FF513B;}
	.st7{fill:#4D4D4D;}
	.st8{fill:#CCCCCC;}
	.st9{fill:#E6E6E6;}
	.st10{fill:#C63622;}
	.st11{opacity:0.5;}
	.st12{fill:#AF5F0E;}
	.st13{fill:#E9A82F;}
	.st14{opacity:0.5;fill:#808080;}
	.st15{fill:#1E2E40;}
	.st16{fill:#F7AE2A;}
	.st17{fill:#AEBFCC;}
	.st18{opacity:0.25;}
	.st19{fill:#D85F21;}
</style>
<g id="XMLID_4_">
	<g id="XMLID_13_" class="st18">
		<g>
			<ellipse transform="matrix(0.9732 -0.2298 0.2298 0.9732 -3.204 17.0207)" cx="71.5" cy="22.3" rx="9.6" ry="9.6"/>
		</g>
	</g>
	<g id="XMLID_12_">
		<g>
			<ellipse transform="matrix(0.9732 -0.2298 0.2298 0.9732 -3.0401 16.8449)" class="st1" cx="70.8" cy="21.5" rx="9.6" ry="9.6"/>
		</g>
	</g>
	<g id="XMLID_1606_">
		<g id="XMLID_1679_">
			<g id="XMLID_577_">
				<g>
					<path class="st16" d="M70.8,14.4c-3.9,0-7.1,3.2-7.1,7.1c0,3.9,3.2,7.1,7.1,7.1c3.9,0,7.1-3.2,7.1-7.1
						C77.9,17.6,74.7,14.4,70.8,14.4z"/>
				</g>
			</g>
			<g id="XMLID_1680_">
				<g>
					<path class="st19" d="M70.8,12.8c-4.8,0-8.7,3.9-8.7,8.7c0,4.8,3.9,8.7,8.7,8.7c4.8,0,8.7-3.9,8.7-8.7
						C79.5,16.7,75.6,12.8,70.8,12.8z M70.8,28.6c-3.9,0-7.1-3.2-7.1-7.1c0-3.9,3.2-7.1,7.1-7.1c3.9,0,7.1,3.2,7.1,7.1
						C77.9,25.4,74.7,28.6,70.8,28.6z"/>
				</g>
			</g>
		</g>
		<g id="XMLID_1658_">
			<g id="XMLID_1675_">
				<g id="XMLID_1676_">
					<g id="XMLID_1677_">
						<g id="XMLID_574_">
							<g>
								<path class="st15" d="M66.3,20.6c0,0-0.1,0-0.1-0.1c-0.3-0.4-0.6-0.7-0.9-0.9c-0.1-0.1-0.1-0.2,0-0.3c0.1-0.1,0.2-0.1,0.3,0
									c0.3,0.3,0.6,0.6,1,1c0.1,0.1,0.1,0.2,0,0.3C66.4,20.6,66.4,20.6,66.3,20.6z"/>
							</g>
						</g>
					</g>
				</g>
			</g>
			<g id="XMLID_1671_">
				<g id="XMLID_1672_">
					<g id="XMLID_1673_">
						<g id="XMLID_573_">
							<g>
								<path class="st15" d="M68.4,18.7c-0.1,0-0.2,0-0.2-0.1c-0.2-0.4-0.4-0.8-0.7-1.2c-0.1-0.1,0-0.2,0.1-0.3
									c0.1-0.1,0.2,0,0.3,0.1c0.2,0.4,0.4,0.8,0.7,1.2C68.6,18.5,68.6,18.6,68.4,18.7C68.5,18.7,68.4,18.7,68.4,18.7z"/>
							</g>
						</g>
					</g>
				</g>
			</g>
			<g id="XMLID_1667_">
				<g id="XMLID_1668_">
					<g id="XMLID_1669_">
						<g id="XMLID_572_">
							<g>
								<path class="st15" d="M75.3,20.6c0,0,0.1,0,0.1-0.1c0.3-0.4,0.6-0.7,0.9-0.9c0.1-0.1,0.1-0.2,0-0.3c-0.1-0.1-0.2-0.1-0.3,0
									c-0.3,0.3-0.6,0.6-1,1c-0.1,0.1-0.1,0.2,0,0.3C75.2,20.6,75.3,20.6,75.3,20.6z"/>
							</g>
						</g>
					</g>
				</g>
			</g>
			<g id="XMLID_1663_">
				<g id="XMLID_1664_">
					<g id="XMLID_1665_">
						<g id="XMLID_571_">
							<g>
								<path class="st15" d="M73.2,18.7c0.1,0,0.2,0,0.2-0.1c0.2-0.4,0.4-0.8,0.7-1.2c0.1-0.1,0-0.2-0.1-0.3
									c-0.1-0.1-0.2,0-0.3,0.1c-0.2,0.4-0.4,0.8-0.7,1.2C73,18.5,73,18.6,73.2,18.7C73.2,18.7,73.2,18.7,73.2,18.7z"/>
							</g>
						</g>
					</g>
				</g>
			</g>
			<g id="XMLID_1659_">
				<g id="XMLID_1660_">
					<g id="XMLID_1661_">
						<g id="XMLID_35_">
							<g>
								<path class="st15" d="M70.8,17.8c-0.1,0-0.2-0.1-0.2-0.2v-1.4c0-0.1,0.1-0.2,0.2-0.2c0.1,0,0.2,0.1,0.2,0.2v1.4
									C71,17.7,70.9,17.8,70.8,17.8z"/>
							</g>
						</g>
					</g>
				</g>
			</g>
		</g>
		<g id="XMLID_1649_">
			<g id="XMLID_1655_">
				<g id="XMLID_1656_">
					<g id="XMLID_34_">
						<g>
							<polygon class="st15" points="69.6,25.1 67.4,20.1 70.5,24.6 							"/>
						</g>
					</g>
				</g>
			</g>
			<g id="XMLID_1650_">
				<g id="XMLID_1651_">
					<g id="XMLID_1652_">
						<g>
							<path class="st15" d="M70.6,24.7C70.6,24.7,70.6,24.7,70.6,24.7l-1,0.5c0,0-0.1,0-0.1,0c0,0-0.1,0-0.1-0.1l-2.1-4.9
								c0-0.1,0-0.2,0.1-0.2c0.1,0,0.2,0,0.2,0l3.1,4.4C70.6,24.5,70.6,24.5,70.6,24.7C70.6,24.6,70.6,24.6,70.6,24.7z M69.6,24.9
								l0.6-0.4l-2.1-3L69.6,24.9z"/>
						</g>
					</g>
				</g>
			</g>
		</g>
		<g id="XMLID_1646_">
			<g id="XMLID_1647_">
				<g id="XMLID_30_">
					<g>
						<path class="st15" d="M72.7,25.7c0,1-0.8,1.9-1.9,1.9c-1,0-1.9-0.8-1.9-1.9c0-1,0.8-1.9,1.9-1.9
							C71.8,23.9,72.7,24.7,72.7,25.7z"/>
					</g>
				</g>
			</g>
		</g>
		<g id="XMLID_1608_">
			<g id="XMLID_1633_">
				<g id="XMLID_1634_">
					<g id="XMLID_1635_">
						<g id="XMLID_25_">
							<g>
								<path class="st15" d="M72.3,22.1c0,0-0.1,0-0.1,0c-0.1-0.1-0.2-0.2-0.2-0.4c0.1-0.5-0.2-0.6-0.2-0.6l0-0.1
									c0,0,0.4,0.1,0.3,0.7c0,0.1,0,0.2,0.1,0.3c0,0,0.1,0,0.1,0c0.1-0.1,0.1-0.3,0-0.8c-0.1-0.2-0.1-0.4-0.2-0.5
									c-0.1-0.3-0.1-0.4-0.3-0.5l0-0.1c0.3,0,0.4,0.2,0.5,0.6c0,0.1,0.1,0.3,0.2,0.5c0.2,0.6,0,0.9,0,0.9
									C72.4,22.1,72.3,22.1,72.3,22.1z"/>
							</g>
						</g>
					</g>
				</g>
			</g>
			<g id="XMLID_1617_">
				<g id="XMLID_1628_">
					<g id="XMLID_1629_">
						<g id="XMLID_1630_">
							<g id="XMLID_1631_">
								<g id="XMLID_11_">
									<g>
										<path class="st15" d="M72.3,20.4C72.3,20.4,72.3,20.4,72.3,20.4l-0.4-0.3h-0.5c0,0,0,0,0,0c0,0,0,0,0,0H72c0,0,0,0,0,0
											L72.3,20.4C72.4,20.4,72.4,20.4,72.3,20.4C72.3,20.4,72.3,20.4,72.3,20.4z"/>
									</g>
								</g>
							</g>
						</g>
					</g>
				</g>
				<g id="XMLID_1623_">
					<g id="XMLID_1624_">
						<g id="XMLID_1625_">
							<g id="XMLID_1626_">
								<g id="XMLID_10_">
									<g>
										<path class="st15" d="M71.9,20.3c-0.2,0-0.3-0.2-0.3-0.2c0,0,0,0,0,0c0,0,0,0,0,0C71.7,20.1,71.8,20.3,71.9,20.3
											C71.9,20.3,71.9,20.3,71.9,20.3c0.2-0.1,0.3-0.1,0.3-0.1c0,0,0,0,0,0c0,0,0,0,0,0h0C72.2,20.3,72.1,20.3,71.9,20.3
											C71.9,20.3,71.9,20.3,71.9,20.3z"/>
									</g>
								</g>
							</g>
						</g>
					</g>
				</g>
				<g id="XMLID_1618_">
					<g id="XMLID_1619_">
						<g id="XMLID_1620_">
							<g id="XMLID_1621_">
								<g id="XMLID_1258_">
									<g>
										<path class="st15" d="M71.9,20.3C71.9,20.3,71.8,20.3,71.9,20.3C71.8,20.3,71.8,20.3,71.9,20.3c0-0.1,0.1-0.1,0.1-0.2
											c0,0,0,0,0,0c0,0,0,0,0,0C72,20.2,71.9,20.3,71.9,20.3C71.9,20.3,71.9,20.3,71.9,20.3z"/>
									</g>
								</g>
							</g>
						</g>
					</g>
				</g>
			</g>
			<g id="XMLID_1613_">
				<g id="XMLID_1614_">
					<g id="XMLID_1615_">
						<g id="XMLID_6_">
							<g>
								<path class="st15" d="M71.9,22.1c0,0.1-0.1,0.1-0.1,0.1H70c-0.1,0-0.1-0.1-0.1-0.1v-2.5c0-0.1,0.1-0.1,0.1-0.1h1.7
									c0.1,0,0.1,0.1,0.1,0.1V22.1z"/>
							</g>
						</g>
					</g>
				</g>
			</g>
			<g id="XMLID_1609_">
				<g id="XMLID_1610_">
					<g id="XMLID_1611_">
						<g id="XMLID_5_">
							<g>
								<path class="st16" d="M71.7,20.6c0,0.1-0.1,0.1-0.1,0.1h-1.3c-0.1,0-0.1-0.1-0.1-0.1v-0.7c0-0.1,0.1-0.1,0.1-0.1h1.3
									c0.1,0,0.1,0.1,0.1,0.1V20.6z"/>
							</g>
						</g>
					</g>
				</g>
			</g>
		</g>
	</g>
</g>
<g class="st18">
	<g>
		<g>
			<path d="M10.4,12.8v13.6c0,0.8,0.4,1.2,1.3,1.2h6.4l0.2,3.9c-1.8,0.2-4.7,0.3-8.7,0.3c-1.4,0-2.5-0.4-3.3-1.1
				c-0.8-0.8-1.2-1.8-1.2-3V12.8H10.4z"/>
		</g>
		<g>
			<path d="M25.4,31.7h-5.1V12.8h5.1V31.7z"/>
		</g>
		<g>
			<path d="M43.5,16.8H38v14.9h-5.1V16.8h-5.4v-4h16V16.8z"/>
		</g>
		<g>
			<path d="M61.4,31.7H56L54.7,26c-0.1-0.5-0.3-0.9-0.6-1.1c-0.3-0.2-0.7-0.3-1.2-0.3h-2.3v7.1h-5.1V12.8c1.8-0.2,4.3-0.3,7.6-0.3
				c2.7,0,4.7,0.4,5.8,1.2c1.2,0.8,1.7,2.3,1.7,4.5c0,2.8-1.2,4.3-3.7,4.6V23c1.6,0.3,2.6,1.2,2.9,2.9L61.4,31.7z M50.6,20.9H53
				c1,0,1.6-0.2,2-0.5s0.5-0.9,0.5-1.8s-0.2-1.5-0.5-1.8c-0.3-0.3-1-0.5-2-0.5h-2.5V20.9z"/>
		</g>
	</g>
</g>
<g class="st18">
	<g>
		<path d="M98.2,12.8h4.7c1.2,0,1.8,0.6,1.9,1.8l0.7,17.1h-4.7l-0.6-15h-0.4l-2.3,10.6c-0.2,1.1-0.9,1.6-2,1.6h-2.9
			c-1.1,0-1.8-0.5-2-1.6l-2.3-10.6h-0.4l-0.5,15h-4.7l0.7-17.1c0.1-1.2,0.7-1.8,1.9-1.8h4.6c1.1,0,1.8,0.5,2,1.6l1.8,8.4
			c0.1,0.6,0.2,1.5,0.4,2.7h0.3c0-0.1,0.1-0.5,0.2-1.2c0.1-0.7,0.2-1.2,0.2-1.6l1.7-8.4C96.5,13.3,97.1,12.8,98.2,12.8z"/>
	</g>
	<g>
		<path d="M121.7,27.7l0.2,3.7c-1.8,0.2-4.9,0.3-9.4,0.3c-1.3,0-2.3-0.4-3.1-1.1c-0.8-0.7-1.2-1.7-1.2-2.9v-11
			c0-1.2,0.4-2.2,1.2-2.9c0.8-0.7,1.8-1.1,3.1-1.1c4.5,0,7.6,0.1,9.4,0.3l-0.2,3.7h-7.1c-0.8,0-1.2,0.4-1.2,1.2v2.3h7.3v3.5h-7.3
			v2.9c0,0.8,0.4,1.2,1.2,1.2H121.7z"/>
	</g>
	<g>
		<path d="M139.2,16.7h-5.5v14.9h-5.1V16.7h-5.4v-4h16V16.7z"/>
	</g>
	<g>
		<path d="M157.2,31.7h-5.4l-1.3-5.7c-0.1-0.5-0.3-0.9-0.6-1.1c-0.3-0.2-0.7-0.3-1.2-0.3h-2.3v7.1h-5.1V12.8
			c1.8-0.2,4.3-0.3,7.6-0.3c2.7,0,4.7,0.4,5.8,1.2c1.2,0.8,1.7,2.3,1.7,4.5c0,2.8-1.2,4.3-3.7,4.6v0.2c1.6,0.3,2.6,1.2,2.9,2.9
			L157.2,31.7z M146.3,20.8h2.5c1,0,1.6-0.2,2-0.5s0.5-0.9,0.5-1.8s-0.2-1.5-0.5-1.8c-0.3-0.3-1-0.5-2-0.5h-2.5V20.8z"/>
	</g>
	<g>
		<path d="M167.2,12.4c2.2,0,3.8,0.3,5,0.9c1.2,0.6,2.1,1.6,2.6,3c0.6,1.4,0.8,3.4,0.8,6s-0.3,4.6-0.8,6c-0.6,1.4-1.4,2.4-2.6,3
			c-1.2,0.6-2.9,0.9-5,0.9c-3.2,0-5.4-0.7-6.6-2.1c-1.2-1.4-1.8-4-1.8-7.8c0-3.8,0.6-6.4,1.8-7.8S164,12.4,167.2,12.4z M169.6,17.5
			c-0.4-0.8-1.2-1.2-2.4-1.2c-1.2,0-2,0.4-2.4,1.2c-0.4,0.8-0.6,2.4-0.6,4.7c0,2.3,0.2,3.9,0.6,4.7s1.2,1.2,2.4,1.2
			c1.2,0,2-0.4,2.4-1.2c0.4-0.8,0.6-2.4,0.6-4.7C170.2,19.9,170,18.3,169.6,17.5z"/>
	</g>
</g>
<g>
	<path class="st1" d="M9.7,12.2v13.6c0,0.8,0.4,1.2,1.3,1.2h6.4l0.2,3.9c-1.8,0.2-4.7,0.3-8.7,0.3c-1.4,0-2.5-0.4-3.3-1.1
		c-0.8-0.8-1.2-1.8-1.2-3V12.2H9.7z"/>
	<path class="st1" d="M24.7,31.1h-5.1V12.2h5.1V31.1z"/>
	<path class="st1" d="M42.7,16.1h-5.5v14.9h-5.1V16.1h-5.4v-4h16V16.1z"/>
	<path class="st1" d="M60.7,31.1h-5.4l-1.3-5.7c-0.1-0.5-0.3-0.9-0.6-1.1c-0.3-0.2-0.7-0.3-1.2-0.3h-2.3v7.1h-5.1V12.2
		c1.8-0.2,4.3-0.3,7.6-0.3c2.7,0,4.7,0.4,5.8,1.2c1.2,0.8,1.7,2.3,1.7,4.5c0,2.8-1.2,4.3-3.7,4.6v0.2c1.6,0.3,2.6,1.2,2.9,2.9
		L60.7,31.1z M49.8,20.2h2.5c1,0,1.6-0.2,2-0.5s0.5-0.9,0.5-1.8s-0.2-1.5-0.5-1.8c-0.3-0.3-1-0.5-2-0.5h-2.5V20.2z"/>
</g>
<g>
	<g class="st18">
		<g>
			<g>
				<path d="M76.5,8.9l-1.2,1.7l-4.1-2.6h-0.2l-4.2,2.6l-1.3-1.9l3.8-3.6h3.6L76.5,8.9z"/>
			</g>
		</g>
	</g>
	<g>
		<g>
			<g>
				<path class="st1" d="M76.1,8.3l-1.2,1.7l-4.1-2.6h-0.2l-4.2,2.6l-1.3-1.9l3.8-3.6h3.6L76.1,8.3z"/>
			</g>
		</g>
	</g>
</g>
<g>
	<path class="st1" d="M97.2,12h4.7c1.2,0,1.8,0.6,1.9,1.8l0.7,17.2h-4.7l-0.6-15.1h-0.4l-2.3,10.7c-0.2,1.1-0.9,1.6-2,1.6h-2.9
		c-1.1,0-1.8-0.5-2-1.6l-2.3-10.7h-0.4L86.1,31h-4.7l0.7-17.2c0.1-1.2,0.7-1.8,1.9-1.8h4.6c1.1,0,1.8,0.5,2,1.6l1.8,8.4
		c0.1,0.6,0.2,1.5,0.4,2.8h0.3c0-0.1,0.1-0.5,0.2-1.2s0.2-1.2,0.2-1.6l1.7-8.4C95.4,12.5,96.1,12,97.2,12z"/>
	<path class="st1" d="M120.9,27.1l0.2,3.7c-1.8,0.2-4.9,0.3-9.4,0.3c-1.3,0-2.4-0.4-3.1-1.1s-1.2-1.7-1.2-3V16c0-1.2,0.4-2.2,1.2-3
		c0.8-0.7,1.8-1.1,3.1-1.1c4.5,0,7.6,0.1,9.4,0.3l-0.2,3.7h-7.1c-0.8,0-1.2,0.4-1.2,1.2v2.3h7.3V23h-7.3v2.9c0,0.8,0.4,1.2,1.2,1.2
		H120.9z"/>
	<path class="st1" d="M138.6,16h-5.5v15h-5.2V16h-5.5v-4h16.1V16z"/>
	<path class="st1" d="M156.6,31h-5.4l-1.4-5.7c-0.1-0.6-0.3-0.9-0.6-1.1c-0.3-0.2-0.7-0.3-1.2-0.3h-2.3V31h-5.1V12
		c1.8-0.2,4.4-0.3,7.7-0.3c2.7,0,4.7,0.4,5.9,1.3c1.2,0.8,1.7,2.3,1.7,4.5c0,2.8-1.3,4.3-3.8,4.6v0.2c1.6,0.3,2.6,1.2,2.9,2.9
		L156.6,31z M145.7,20.1h2.5c1,0,1.6-0.2,2-0.5c0.3-0.3,0.5-0.9,0.5-1.8s-0.2-1.5-0.5-1.8s-1-0.5-2-0.5h-2.5V20.1z"/>
	<path class="st1" d="M166.7,11.6c2.2,0,3.9,0.3,5,0.9c1.2,0.6,2.1,1.6,2.6,3c0.6,1.4,0.9,3.4,0.9,6c0,2.6-0.3,4.6-0.9,6
		s-1.5,2.4-2.6,3c-1.2,0.6-2.9,0.9-5,0.9c-3.2,0-5.4-0.7-6.7-2.1c-1.2-1.4-1.9-4-1.9-7.8s0.6-6.4,1.9-7.8
		C161.2,12.3,163.5,11.6,166.7,11.6z M169.1,16.8c-0.4-0.8-1.2-1.2-2.5-1.2s-2,0.4-2.5,1.2c-0.4,0.8-0.6,2.4-0.6,4.7
		s0.2,3.9,0.6,4.7c0.4,0.8,1.2,1.2,2.5,1.2s2-0.4,2.5-1.2c0.4-0.8,0.6-2.4,0.6-4.7S169.6,17.6,169.1,16.8z"/>
</g>
</svg>
